<svg width="18" height="18" viewBox="0 0 18 18" fill="none" xmlns="http://www.w3.org/2000/svg">
<g id="podcast (1) 1" clip-path="url(#clip0_2251_138)">
<path id="Vector" d="M7.49999 9C7.49999 8.17125 8.17124 7.5 8.99999 7.5C9.82874 7.5 10.5 8.17125 10.5 9C10.5 9.82875 9.82874 10.5 8.99999 10.5C8.17124 10.5 7.49999 9.82875 7.49999 9ZM10.455 12.3098C9.95549 12.1463 9.39749 12 8.99999 12C8.60549 12 8.05199 12.144 7.55474 12.306C6.87149 12.5288 6.46424 13.2278 6.59699 13.9343L7.23899 16.8248C7.39124 17.511 8.00024 17.9993 8.70299 17.9993H9.33749C10.0462 17.9993 10.6582 17.5028 10.8052 16.8098L11.415 13.9253C11.5402 13.2225 11.1337 12.531 10.455 12.3098ZM13.6545 11.3888C14.7 9.34875 14.322 6.89775 12.7125 5.28825C11.721 4.29675 10.4025 3.75 8.99999 3.75C7.59749 3.75 6.27899 4.29675 5.28749 5.28825C3.67799 6.89775 3.29999 9.34875 4.34549 11.3888C4.62899 11.94 5.30549 12.1598 5.86049 11.8763C6.41324 11.5928 6.63149 10.9148 6.34799 10.3613C5.74949 9.19425 5.96249 7.79475 6.87899 6.87825C8.01299 5.74425 9.98849 5.74425 11.1217 6.87825C12.0375 7.79475 12.2512 9.19425 11.6527 10.3613C11.3692 10.914 11.5882 11.5928 12.1402 11.8763C12.3045 11.9603 12.48 12 12.6525 12C13.0612 12 13.4557 11.7765 13.6545 11.3888ZM15.3637 2.63625C11.8552 -0.873746 6.14474 -0.873746 2.63624 2.63625C-0.87301 6.14475 -0.87301 11.8553 2.63624 15.3638C2.88524 15.6128 3.15149 15.849 3.42824 16.0673C3.63449 16.2308 3.88049 16.3095 4.12499 16.3095C4.45724 16.3095 4.78649 16.1633 5.00849 15.882C5.39324 15.3945 5.30999 14.6865 4.82249 14.3025C4.61399 14.1375 4.41374 13.9598 4.22699 13.773C1.59524 11.1405 1.59524 6.85875 4.22699 4.22625C6.85874 1.59375 11.1412 1.59525 13.7737 4.22625C16.4055 6.85875 16.4055 11.1405 13.7745 13.7715C13.5847 13.9613 13.3837 14.1398 13.1775 14.3025C12.6907 14.688 12.6075 15.3953 12.993 15.8828C13.3785 16.3688 14.0865 16.4528 14.5732 16.0673C14.8462 15.8513 15.1117 15.6143 15.3637 15.3638C18.873 11.8545 18.873 6.1455 15.3637 2.63625Z" fill="white"/>
</g>
<defs>
<clipPath id="clip0_2251_138">
<rect width="18" height="18" fill="white"/>
</clipPath>
</defs>
</svg>
